<svg xmlns="http://www.w3.org/2000/svg" width="592" height="66" fill="none" viewBox="0 0 592 66"><g clip-path="url(#a)"><path fill="url(#b)" d="M591.75 7.08H323.89v55.9h267.86z"/><path fill="#fff" d="M35.42 58.29c-3.65 1.79-7.03 2.41-10.75 2.41C10.82 60.7 0 49.47 0 35.75s10.82-25.01 24.67-25.01c3.72 0 7.03.62 10.75 2.41v15.23c-2.07-2.89-5.72-5.03-9.99-5.03-6.62 0-12.06 5.65-12.06 12.4s5.24 12.4 11.65 12.4c4.2 0 8.34-2.48 10.41-5.44v15.57zM64.71 10.74c14.47 0 25.01 11.23 25.01 25.01S79.18 60.77 64.71 60.77 39.7 49.54 39.7 35.75s10.54-25.01 25.01-25.01m0 37.42c7.1 0 11.65-5.58 11.65-12.4s-4.55-12.4-11.65-12.4-11.65 5.58-11.65 12.4 4.55 12.4 11.65 12.4M94.96 11.56h10.61l16.54 16.88V11.56h12.47v49.96l-27.15-28.87V59.8H94.96zM164.84 10.74c14.47 0 25.01 11.23 25.01 25.01 0 11.79-7.65 21.71-18.88 24.33v5.61h-11.92v-5.55c-11.44-2.55-19.23-12.47-19.23-24.4 0-13.78 10.54-25.01 25.01-25.01zm-5.79 35.97v-6.06h11.92v5.86c3.45-2.21 5.51-6.2 5.51-10.75 0-6.82-4.55-12.4-11.65-12.4s-11.65 5.58-11.65 12.4c0 4.76 2.14 8.89 5.86 10.96zM207.91 11.56v31.77c0 2.69 2.27 4.89 4.96 4.89 2.89 0 5.03-2.2 5.03-4.89V11.56h12.82V43.4c0 9.79-7.92 17.37-17.92 17.37s-17.64-7.58-17.64-17.37V11.56zM238.3 11.56h31.29V23.9h-18.4v6h17.5v11.3h-17.5v6.27h18.68v12.34h-31.56V11.56zM307.69 42.3c4.76 2.62 6.62 7.1 6.62 12.27v5.24h-12.89v-4.13c0-4.62-3.31-8.06-8.2-8.06h-3.38v12.2h-12.82V11.56h19.23c9.85 0 18.06 7.99 18.06 17.78 0 6.06-2.62 10.4-6.62 12.96m-13.23-18.74h-4.62v12.47h4.62c4.07 0 6.69-2.55 6.69-6.2s-2.62-6.27-6.69-6.27M85.12 14.16c4.05 0 6.65-3.19 6.65-7.08S89.17 0 85.12 0s-6.65 3.19-6.65 7.08 2.6 7.08 6.65 7.08M368.03 33.28c2.47 1.99 4.74 5.7 4.74 10.17 0 8.24-6.94 15.39-15.66 15.39h-19.65V10.75h19.31c8.18 0 14.7 6.53 14.7 14.56 0 3.09-1.85 6.39-3.43 7.97zm-18.07-4.53h5.15c1.92 0 3.02-1.51 3.02-3.02s-1.1-3.02-3.02-3.02h-5.15v6.05zm5.84 18.14c2.06 0 3.71-1.79 3.71-3.85s-1.65-3.85-3.71-3.85h-5.84v7.69h5.84zM379.58 10.75h12.85v36.27h17.18v11.82h-30.02V10.75zM437.84 9.92c14.43 0 24.94 11.2 24.94 24.94S452.27 59.8 437.84 59.8 412.9 48.6 412.9 34.86s10.51-24.94 24.94-24.94m0 37.3c7.08 0 11.61-5.56 11.61-12.37s-4.53-12.37-11.61-12.37-11.61 5.56-11.61 12.37 4.53 12.37 11.61 12.37M500.98 57.33c-3.64 1.79-7.01 2.4-10.72 2.4-13.81 0-24.59-11.2-24.59-24.87s10.79-24.94 24.59-24.94c3.71 0 7.01.62 10.72 2.41v15.18c-2.06-2.88-5.7-5.01-9.96-5.01-6.6 0-12.02 5.63-12.02 12.37s5.22 12.37 11.61 12.37c4.19 0 8.31-2.47 10.37-5.43v15.53zM507.65 10.75h12.85v14.91l9.48-14.91h15.25L530.39 31.5l15.8 27.34h-15.8l-8.45-16.08-1.44 2.13v13.95h-12.85zM569.14 28.4c8.45 0 15.18 6.94 15.18 15.05s-6.8 15.39-15.18 15.39h-19.51v-12.5h18.48c1.58 0 3.02-1.17 3.02-2.82 0-1.51-1.44-2.75-3.02-2.75h-5.91c-8.24 0-14.91-7.01-14.91-15.18s6.66-14.84 14.91-14.84h16.69v12.3h-15.94c-1.58 0-2.68 1.24-2.68 2.68 0 1.58 1.1 2.68 2.68 2.68h6.18z"/></g><defs><linearGradient id="b" x1="306.15" x2="616.56" y1="-4.54" y2="76.44" gradientUnits="userSpaceOnUse"><stop stop-color="#f6ff55"/><stop offset="1" stop-color="#6dbaff"/></linearGradient><clipPath id="a"><path fill="#fff" d="M0 0h591.75v65.69H0z"/></clipPath></defs></svg>